<?xml version="1.0" ?><!DOCTYPE svg  PUBLIC '-//W3C//DTD SVG 1.1//EN'  'http://www.w3.org/Graphics/SVG/1.1/DTD/svg11.dtd'><svg height="32px" style="enable-background:new 0 0 32 32;" version="1.1" viewBox="0 0 32 32" width="32px" xml:space="preserve" xmlns="http://www.w3.org/2000/svg" xmlns:xlink="http://www.w3.org/1999/xlink"><g id="_x38__audio_headphones"><g fill="#ffffff"><path d="M25.773,15.927c-0.014-0.004-0.027-0.012-0.041-0.017v-1.004c0-5.359-4.361-9.722-9.722-9.722s-9.722,4.362-9.722,9.722    v0.996v10.61c0.569,0.193,1.177,0.305,1.812,0.305c0.184,0,0.366-0.012,0.546-0.029v-4.516v-6.617h0.209    c-0.069-0.009-0.14-0.008-0.209-0.016v-0.733c0-4.061,3.304-7.364,7.365-7.364c4.062,0,7.364,3.303,7.364,7.364v0.731    c-0.076,0.008-0.154,0.007-0.23,0.018h0.209v11.133c0.18,0.018,0.363,0.029,0.547,0.029c0.656,0,1.287-0.119,1.873-0.328V15.927z"/><path d="M5.028,16.537c-1.522,1.002-2.537,2.711-2.537,4.67c0,1.961,1.01,3.688,2.537,4.689V16.537z"/><path d="M27.033,16.577v9.283c1.494-1.008,2.477-2.717,2.477-4.652C29.51,19.273,28.521,17.584,27.033,16.577z"/></g></g></svg>